# xmcd
#
# Track frame offsets:
#        150
#        7906
#        27304
#        48843
#        74086
#        94663
#        114310
#        133196
#        152028
#        179037
#        198104
#        218306
#        237806
#        254952
#        273336
#        293479
#
# Disc length: 4164 seconds
#
# Revision: 4
# Processed by: cddbd v1.5.1PL0 Copyright (c) Steve Scherf et al.
# Submitted via: ExactAudioCopy v0.95a4
#
DISCID=e0104210
DTITLE=Dream comes true - The soul (disk1)
DYEAR=2001
DGENRE=Other
TTITLE0=A theme of WONDERLAND
TTITLE1=ureshii! tanoshii! daisuki!
TTITLE2=anonatunohanabi
TTITLE3=kessennhakinnyoubi
TTITLE4=kusuriyubinokeshhinn
TTITLE5=egaonoyukue
TTITLE6=ahaha
TTITLE7=7gatu7ka hare
TTITLE8=LAT43N
TTITLE9=nantekoishitanndaro
TTITLE10=Ring!Ring!Ring!
TTITLE11=ureshihazukashiasagaeri
TTITLE12=anatanisarada
TTITLE13=haretaraiine
TTITLE14=yorokobinouta
TTITLE15=asagamatakuru
EXTD=YEAR: 2001  ID3G:  12
EXTT0=
EXTT1=
EXTT2=
EXTT3=
EXTT4=
EXTT5=
EXTT6=
EXTT7=
EXTT8=
EXTT9=
EXTT10=
EXTT11=
EXTT12=
EXTT13=
EXTT14=
EXTT15=
PLAYORDER=
